<svg width="309" height="551" viewBox="0 0 309 551" fill="none" xmlns="http://www.w3.org/2000/svg">
<g filter="url(#filter0_bd_346_238)">
<path fill-rule="evenodd" clip-rule="evenodd" d="M278.985 85.4878C310.526 90.1935 324.212 128.557 350.528 146.588C374.23 162.829 412.236 160.45 425.562 185.923C438.972 211.556 429.396 245.314 415.429 270.647C403.169 292.886 365.442 291.403 354.72 314.424C342.25 341.198 367.668 375.118 354.468 401.538C339.416 431.663 312.63 466.047 278.985 466C245.326 465.953 234.352 415.085 203.625 401.326C167.437 385.121 107.173 415.76 88.5471 380.724C69.5819 345.051 132.78 311.036 134.153 270.647C135.45 232.5 81.5358 200.174 95.8855 164.812C109.481 131.308 160.822 137.593 193.973 123.231C222.916 110.693 247.794 80.8343 278.985 85.4878Z" fill="#A4E3F7" fill-opacity="0.6" shape-rendering="crispEdges"/>
</g>
<defs>
<filter id="filter0_bd_346_238" x="0" y="0" width="517" height="551" filterUnits="userSpaceOnUse" color-interpolation-filters="sRGB">
<feFlood flood-opacity="0" result="BackgroundImageFix"/>
<feGaussianBlur in="BackgroundImage" stdDeviation="40"/>
<feComposite in2="SourceAlpha" operator="in" result="effect1_backgroundBlur_346_238"/>
<feColorMatrix in="SourceAlpha" type="matrix" values="0 0 0 0 0 0 0 0 0 0 0 0 0 0 0 0 0 0 127 0" result="hardAlpha"/>
<feOffset/>
<feGaussianBlur stdDeviation="42.5"/>
<feComposite in2="hardAlpha" operator="out"/>
<feColorMatrix type="matrix" values="0 0 0 0 0 0 0 0 0 0 0 0 0 0 0 0 0 0 0.1 0"/>
<feBlend mode="normal" in2="effect1_backgroundBlur_346_238" result="effect2_dropShadow_346_238"/>
<feBlend mode="normal" in="SourceGraphic" in2="effect2_dropShadow_346_238" result="shape"/>
</filter>
</defs>
</svg>
