<svg width="331" height="1465" viewBox="0 0 331 1465" fill="none" xmlns="http://www.w3.org/2000/svg">
<g filter="url(#filter0_bd_154_806)">
<path fill-rule="evenodd" clip-rule="evenodd" d="M-168.217 1366.11C-274.488 1284.29 -515.479 1110.08 -608.707 1013.66C-680.791 939.107 -1108.6 1049.05 -1142.48 951.039C-1177.57 849.557 -937.809 782.688 -845.857 735.377C-753.905 688.067 -734.606 619.314 -723.809 555.547C-708.654 466.047 -592.92 416.854 -518.248 365.24C-446.111 315.379 -502.84 85.4375 -416.016 73.127C-287.836 54.9527 -96.5809 202.64 15.1719 268C120.904 329.838 31.1245 456.205 76.0116 570.171C119.705 681.108 271.808 751.89 258.958 870.426C246.176 988.333 100.722 1038.99 16.1727 1122.15C-56.2292 1193.37 -48.2746 1269.55 -138.328 1316.5C-233.082 1365.9 -83.5482 1431.31 -168.217 1366.11Z" fill="#FF9EDE" fill-opacity="0.4" shape-rendering="crispEdges"/>
</g>
<defs>
<filter id="filter0_bd_154_806" x="-1265.96" y="-48.4102" width="1645.69" height="1561.89" filterUnits="userSpaceOnUse" color-interpolation-filters="sRGB">
<feFlood flood-opacity="0" result="BackgroundImageFix"/>
<feGaussianBlur in="BackgroundImage" stdDeviation="60"/>
<feComposite in2="SourceAlpha" operator="in" result="effect1_backgroundBlur_154_806"/>
<feColorMatrix in="SourceAlpha" type="matrix" values="0 0 0 0 0 0 0 0 0 0 0 0 0 0 0 0 0 0 127 0" result="hardAlpha"/>
<feOffset/>
<feGaussianBlur stdDeviation="35.5"/>
<feComposite in2="hardAlpha" operator="out"/>
<feColorMatrix type="matrix" values="0 0 0 0 0 0 0 0 0 0 0 0 0 0 0 0 0 0 0.1 0"/>
<feBlend mode="normal" in2="effect1_backgroundBlur_154_806" result="effect2_dropShadow_154_806"/>
<feBlend mode="normal" in="SourceGraphic" in2="effect2_dropShadow_154_806" result="shape"/>
</filter>
</defs>
</svg>
