<svg width="11" height="42" viewBox="0 0 11 42" fill="none" xmlns="http://www.w3.org/2000/svg">
<path fill-rule="evenodd" clip-rule="evenodd" d="M5.29301 32.6112C6.4182 32.6795 7.74546 31.9722 8.5925 32.6646C9.45002 33.3655 10.5035 34.3826 10.8619 35.3908C11.2236 36.4082 10.7717 37.4473 10.6724 38.5149C10.5695 39.6208 9.59314 40.5066 8.611 41.1371C7.64465 41.7574 6.45681 42.1123 5.29301 41.968C4.20321 41.8328 3.45341 40.9842 2.56106 40.3868C1.66343 39.7858 0.392559 39.4517 0.0662476 38.4687C-0.259598 37.4872 0.709098 36.5803 0.965712 35.5811C1.25592 34.4512 0.659982 32.9337 1.66497 32.2439C2.66841 31.5553 4.04865 32.5357 5.29301 32.6112Z" fill="#B2003D"/>
<path d="M1.15373 3.99704C1.0698 1.81483 2.81618 0 5 0C7.18382 0 8.9302 1.81483 8.84627 3.99704L8.1153 23.0022C8.05092 24.6762 6.67518 26 5 26C3.32482 26 1.94908 24.6762 1.8847 23.0022L1.15373 3.99704Z" fill="#B2003D"/>
</svg>
