<svg width="70" height="71" viewBox="0 0 70 71" fill="none" xmlns="http://www.w3.org/2000/svg">
<path d="M69.7896 20.8636C69.6192 17.0848 69.0275 14.5042 68.1623 12.2465C67.2838 9.87766 65.9059 7.73204 64.1254 5.95856C62.3774 4.15257 60.2615 2.75448 57.926 1.86286C55.6995 0.98587 53.1558 0.386223 49.4302 0.214508C45.6977 0.0411682 44.5052 0 35 0C25.4948 0 24.3023 0.0411682 20.5698 0.213425C16.8442 0.386223 14.3005 0.986412 12.074 1.86394C9.73854 2.75502 7.62314 4.15257 5.87463 5.95856C4.09409 7.7315 2.71568 9.87712 1.83662 12.2459C0.971985 14.5042 0.380783 17.0848 0.211487 20.8631C0.0405884 24.6495 0 25.8585 0 35.4995C0 45.1409 0.0405884 46.3505 0.211487 50.1364C0.381317 53.9146 0.973053 56.4952 1.83823 58.7535C2.71675 61.1218 4.09462 63.268 5.87517 65.0409C7.62314 66.8469 9.73907 68.2444 12.0745 69.1355C14.3005 70.0136 16.8447 70.6132 20.5703 70.786C24.3034 70.9588 25.4954 70.9995 35.0005 70.9995C44.5057 70.9995 45.6982 70.9588 49.4308 70.786C53.1564 70.6132 55.7001 70.0136 57.9266 69.1355C62.6279 67.2916 66.3444 63.522 68.1623 58.7535C69.028 56.4952 69.6192 53.9146 69.7896 50.1364C69.9594 46.35 70 45.1409 70 35.5C70 25.8585 69.9594 24.6495 69.7896 20.8636ZM63.4893 49.8455C63.3339 53.3069 62.7635 55.1865 62.2845 56.4373C61.1069 59.5336 58.6945 61.9804 55.6419 63.1748C54.4087 63.6607 52.5555 64.2392 49.1429 64.3968C45.4531 64.568 44.346 64.6038 35 64.6038C25.6535 64.6038 24.5469 64.568 20.8566 64.3968C17.4445 64.2392 15.5913 63.6607 14.3576 63.1748C12.8377 62.6055 11.4625 61.6981 10.3335 60.5189C9.17084 59.3738 8.27629 57.9795 7.715 56.4373C7.23595 55.1865 6.66557 53.3069 6.51016 49.8455C6.34193 46.1024 6.30615 44.9795 6.30615 35.5005C6.30615 26.021 6.34193 24.8986 6.51016 21.155C6.66611 17.6937 7.23595 15.814 7.715 14.5633C8.27629 13.0211 9.17137 11.6262 10.3335 10.4811C11.4625 9.30185 12.8377 8.39452 14.3581 7.82575C15.5913 7.33932 17.4445 6.76134 20.8571 6.60316C24.5474 6.43253 25.6545 6.39624 35 6.39624H34.9995C44.3449 6.39624 45.452 6.43253 49.1429 6.60371C52.5555 6.76134 54.4082 7.33986 55.6419 7.82575C57.1618 8.39506 58.537 9.30239 59.666 10.4811C60.8286 11.6262 61.7232 13.0211 62.2839 14.5633C62.7635 15.814 63.3339 17.6937 63.4893 21.155C63.6575 24.8981 63.6933 26.021 63.6933 35.5C63.6933 44.9795 63.6581 46.1019 63.4893 49.8455Z" fill="black"/>
<path d="M34.9996 17.2703C25.0736 17.2703 17.0269 25.4324 17.0269 35.5002C17.0269 45.568 25.0736 53.7296 34.9996 53.7296C44.9261 53.7296 52.9728 45.568 52.9728 35.5002C52.9728 25.4324 44.9261 17.2703 34.9996 17.2703ZM34.9996 47.3334C28.5567 47.3328 23.3331 42.0351 23.3336 35.4997C23.3336 28.9647 28.5567 23.6665 35.0001 23.6665C41.4435 23.667 46.6666 28.9647 46.6666 35.4997C46.6666 42.0351 41.443 47.3334 34.9996 47.3334Z" fill="black"/>
<path d="M57.8826 16.5499C57.8826 18.9025 56.0022 20.8097 53.6828 20.8097C51.3628 20.8097 49.4824 18.9025 49.4824 16.5499C49.4824 14.1968 51.3628 12.2896 53.6828 12.2896C56.0022 12.2896 57.8826 14.1968 57.8826 16.5499Z" fill="black"/>
</svg>
