<svg width="32" height="32" viewBox="0 0 32 32" fill="none" xmlns="http://www.w3.org/2000/svg">
<path d="M21.3789 17.7507C20.9627 17.3028 20.4953 16.9048 19.9861 16.565C22.0393 14.9861 23.4782 12.7475 24.0576 10.2311C24.1011 10.049 24.1079 9.86014 24.0776 9.6754C24.0473 9.49067 23.9806 9.31374 23.8811 9.15483C23.7817 8.99592 23.6516 8.85819 23.4984 8.74959C23.3451 8.641 23.1717 8.56369 22.9883 8.52213C22.8048 8.48058 22.6149 8.4756 22.4295 8.50749C22.2441 8.53938 22.0669 8.6075 21.9081 8.70793C21.7493 8.80835 21.6121 8.93907 21.5044 9.09255C21.3967 9.24603 21.3206 9.41922 21.2806 9.60212C21.0111 10.7794 20.4867 11.8841 19.7439 12.8391C19.0011 13.794 18.0578 14.5763 16.9799 15.1313V9.91945C16.9709 9.81539 16.9499 9.71271 16.9172 9.61345C16.9076 9.53144 16.8909 9.45039 16.8674 9.3712C16.8067 9.2418 16.7265 9.12237 16.6296 9.01704C16.6039 8.9887 16.5911 8.94904 16.5641 8.9207C16.4598 8.82493 16.3417 8.74519 16.2137 8.68412C16.1767 8.66429 16.1497 8.63171 16.1112 8.61612C16.0023 8.57985 15.8895 8.55655 15.7751 8.54671C15.7043 8.52619 15.6319 8.5115 15.5587 8.50279L14.6273 8.49996H14.623C14.2894 8.49761 13.9656 8.61246 13.7088 8.82427C13.4519 9.03608 13.2784 9.33127 13.2188 9.65785C13.1592 9.98443 13.2174 10.3214 13.3831 10.6095C13.5488 10.8976 13.8114 11.1183 14.1246 11.2327V18.1602C11.8679 15.8299 10.3734 12.8745 9.83812 9.68287C9.77504 9.31241 9.56661 8.98204 9.25869 8.76445C8.95076 8.54687 8.56855 8.45988 8.19615 8.52262C7.82374 8.58537 7.49165 8.79271 7.27292 9.09903C7.05419 9.40536 6.96675 9.78557 7.02982 10.156C7.86196 15.0899 10.6276 19.4938 14.7199 22.4016C14.7783 22.4362 14.8393 22.4665 14.9022 22.4923C14.9517 22.5211 15.0031 22.5466 15.056 22.5688C15.2146 22.632 15.3835 22.6661 15.5544 22.6694C15.764 22.6668 15.9703 22.6174 16.1582 22.5249C16.1724 22.5178 16.1881 22.522 16.2023 22.515C16.3282 22.4494 16.4434 22.3654 16.5441 22.2656C16.5655 22.2458 16.5783 22.2231 16.5982 22.2019C16.6902 22.1016 16.7669 21.9885 16.8261 21.8661C16.8457 21.8259 16.8633 21.7848 16.8788 21.7429C16.9413 21.5868 16.9751 21.4207 16.9785 21.2527V18.2409C17.8615 18.4984 18.6572 18.9906 19.2798 19.6646L21.6253 22.2104C21.8806 22.4873 22.236 22.652 22.6134 22.6682C22.9907 22.6844 23.3591 22.5508 23.6375 22.2968C23.9158 22.0428 24.0814 21.6892 24.0977 21.3138C24.114 20.9384 23.9797 20.572 23.7244 20.2951L21.3789 17.7507ZM20.4233 0H11.6852C2.91707 0 0.382202 2.51882 0.382202 11.2299V19.9225C0.382202 28.6449 2.91422 31.1665 11.6709 31.1665H20.4091C29.1772 31.1665 31.712 28.6477 31.712 19.9366V11.244C31.712 2.52165 29.18 0 20.4233 0ZM29.6234 19.9366C29.6234 27.0766 27.5993 29.0887 20.4077 29.0887H11.6723C4.49353 29.0887 2.47086 27.0752 2.47086 19.9211V11.2313C2.47086 4.0899 4.49495 2.07777 11.6866 2.07777H20.4233C27.6007 2.07777 29.6234 4.09131 29.6234 11.2454V19.9366Z" fill="black"/>
</svg>
