<svg width="56" height="53" viewBox="0 0 56 53" fill="none" xmlns="http://www.w3.org/2000/svg">
<path fill-rule="evenodd" clip-rule="evenodd" d="M26.9462 3.23946C32.6745 3.60158 39.4314 -0.147132 43.7436 3.52235C48.1092 7.23725 53.4723 12.6279 55.2971 17.9713C57.1384 23.3633 54.838 28.8708 54.3323 34.5289C53.8084 40.39 48.8378 45.0852 43.8378 48.4266C38.9182 51.7142 32.871 53.5952 26.9462 52.8302C21.3982 52.1138 17.581 47.6162 13.0381 44.4499C8.46838 41.2649 1.99848 39.494 0.337261 34.2844C-1.32159 29.0822 3.60995 24.2754 4.91635 18.9799C6.39376 12.9911 3.35991 4.94848 8.47619 1.29288C13.5846 -2.35711 20.6113 2.83899 26.9462 3.23946Z" fill="#FFBAD2"/>
</svg>
