<svg width="93" height="93" viewBox="0 0 93 93" fill="none" xmlns="http://www.w3.org/2000/svg">
<path d="M75.7659 11.6136C74.833 11.6815 73.9172 11.9004 73.0544 12.2617H73.0428C72.2145 12.5901 68.2765 14.2467 62.2897 16.7577L40.8357 25.7932C25.4413 32.2742 10.3085 38.6563 10.3085 38.6563L10.4887 38.5865C10.4887 38.5865 9.44533 38.9295 8.35549 39.6764C7.68219 40.1048 7.10282 40.6654 6.65242 41.3242C6.11767 42.1089 5.68755 43.3092 5.84739 44.5502C6.10895 46.6485 7.46908 47.9069 8.44558 48.6015C9.4337 49.3048 10.3753 49.6332 10.3753 49.6332H10.3986L24.5898 54.414C25.2263 56.4571 28.9143 68.5819 29.8007 71.3748C30.3238 73.043 30.8324 74.0864 31.4689 74.8827C31.777 75.2896 32.1373 75.6296 32.5704 75.9028C32.7955 76.0337 33.0355 76.1372 33.2853 76.2108L33.14 76.176C33.1836 76.1876 33.2185 76.2225 33.2504 76.2341C33.3667 76.2661 33.4451 76.2777 33.5934 76.3009C35.8399 76.981 37.6447 75.586 37.6447 75.586L37.7464 75.5046L46.1251 67.8757L60.1681 78.6492L60.4878 78.7858C63.4144 80.0703 66.3788 79.3554 67.9452 78.0941C69.5233 76.8241 70.1365 75.1995 70.1365 75.1995L70.2383 74.9379L81.0902 19.3443C81.3983 17.9725 81.4767 16.6879 81.1367 15.4412C80.786 14.1793 79.9765 13.0941 78.8669 12.3983C77.9352 11.8319 76.8549 11.5586 75.7659 11.6136ZM75.4724 17.5714C75.4608 17.7545 75.4957 17.7342 75.4143 18.0859V18.1178L64.6641 73.1331C64.6176 73.2116 64.5391 73.3831 64.324 73.5545C64.0974 73.7347 63.9172 73.8481 62.9726 73.4732L45.7967 60.3049L35.4214 69.7619L37.6011 55.8409L65.6638 29.6847C66.8205 28.6094 66.434 28.3827 66.434 28.3827C66.5154 27.0633 64.6873 27.9962 64.6873 27.9962L29.3008 49.918L29.2892 49.8599L12.3283 44.1491V44.1375L12.2847 44.1288C12.3145 44.1189 12.3436 44.1072 12.3719 44.0939L12.4649 44.0474L12.555 44.0154C12.555 44.0154 27.6995 37.6333 43.0939 31.1524C50.8013 27.9061 58.5668 24.6365 64.5391 22.1139C70.5115 19.6058 74.926 17.7662 75.176 17.6674C75.4143 17.5744 75.3009 17.5744 75.4724 17.5744V17.5714Z" fill="black"/>
</svg>
