<?xml version="1.0" standalone="no"?>
<!DOCTYPE svg PUBLIC "-//W3C//DTD SVG 20010904//EN"
 "http://www.w3.org/TR/2001/REC-SVG-20010904/DTD/svg10.dtd">
<svg version="1.0" xmlns="http://www.w3.org/2000/svg"
 width="470.000000pt" height="470.000000pt" viewBox="0 0 470.000000 470.000000"
 preserveAspectRatio="xMidYMid meet">
<metadata>
Created by potrace 1.14, written by Peter Selinger 2001-2017
</metadata>
<g transform="translate(0.000000,470.000000) scale(0.100000,-0.100000)"
fill="#000000" stroke="none">
<path d="M2172 4481 c-12 -3 -35 -19 -52 -34 -17 -16 -35 -25 -41 -21 -7 4 -9
3 -6 -3 4 -6 -1 -17 -10 -24 -15 -12 -16 -12 -11 7 3 13 0 21 -7 21 -8 0 -12
-9 -10 -20 4 -16 2 -17 -12 -5 -12 9 -15 9 -9 1 4 -8 1 -13 -8 -13 -9 0 -16 5
-16 11 0 6 -7 8 -15 5 -9 -3 -18 0 -21 7 -2 7 -17 14 -31 15 -15 1 -31 6 -36
11 -14 14 -117 -44 -117 -66 0 -17 -47 -54 -75 -59 -16 -3 -32 -7 -37 -10 -4
-3 -8 -1 -8 4 0 6 -10 8 -22 4 -12 -3 -19 -1 -15 4 8 14 -84 10 -111 -4 -12
-7 -27 -10 -32 -7 -6 4 -10 3 -9 -2 4 -16 -13 -43 -24 -36 -5 3 -8 2 -5 -3 3
-5 1 -20 -4 -34 -7 -20 -11 -22 -19 -10 -8 12 -9 10 -4 -7 5 -17 0 -25 -24
-38 -29 -14 -31 -14 -32 2 0 14 -2 13 -9 -5 -8 -18 -15 -21 -35 -16 -59 15
-97 8 -132 -25 -18 -16 -35 -42 -39 -58 -11 -46 -33 -83 -50 -83 -9 0 -12 -5
-8 -12 5 -9 2 -8 -9 1 -15 12 -17 12 -12 -1 3 -8 0 -16 -7 -17 -42 -6 -75 -9
-90 -10 -30 -2 -87 -60 -94 -97 -4 -21 -10 -31 -18 -27 -8 5 -8 3 1 -8 9 -11
8 -22 -2 -46 -8 -18 -17 -33 -20 -33 -3 0 -3 5 1 12 4 7 3 8 -4 4 -7 -4 -12
-14 -12 -22 0 -8 -4 -12 -10 -9 -5 3 -10 2 -10 -4 0 -6 -19 -15 -42 -21 -60
-15 -87 -30 -94 -52 -3 -10 -9 -16 -14 -13 -4 3 -8 -1 -7 -8 2 -74 -4 -127
-15 -121 -10 6 -10 5 0 -8 10 -12 8 -20 -9 -42 -12 -16 -27 -25 -36 -22 -8 3
-11 1 -8 -4 3 -6 -2 -13 -12 -16 -10 -3 -26 -10 -36 -15 -10 -5 -22 -7 -27 -4
-6 3 -7 -1 -4 -9 3 -9 2 -16 -4 -16 -24 0 -45 -99 -29 -137 13 -29 1 -82 -24
-113 -14 -16 -19 -19 -15 -7 9 27 -3 20 -14 -9 -8 -20 -15 -24 -33 -19 -15 4
-18 3 -8 -3 16 -12 -3 -27 -21 -16 -7 4 -8 3 -4 -4 4 -6 -2 -28 -12 -48 -17
-34 -17 -38 -2 -85 10 -27 20 -52 24 -56 3 -3 6 -11 6 -17 0 -6 -5 -4 -10 4
-8 13 -10 13 -10 -2 0 -9 4 -19 10 -23 5 -3 7 -12 4 -20 -4 -8 -10 -12 -15 -9
-5 3 -6 -1 -4 -8 6 -15 -29 -58 -46 -58 -6 0 -8 -4 -5 -9 3 -5 -1 -11 -9 -15
-8 -3 -15 -12 -15 -21 0 -8 -3 -15 -7 -15 -5 0 -8 -22 -8 -49 0 -27 3 -47 8
-44 4 2 7 -3 7 -11 0 -9 5 -16 10 -16 6 0 10 -7 10 -15 0 -8 3 -15 8 -15 4 0
8 -20 10 -45 1 -27 -2 -45 -9 -45 -5 0 -8 -4 -5 -9 4 -5 -5 -22 -18 -38 -35
-41 -46 -90 -31 -140 9 -31 10 -45 1 -54 -7 -8 -4 -7 7 1 17 12 21 11 38 -10
11 -14 17 -33 15 -42 -2 -9 4 -20 13 -23 14 -6 14 -8 -3 -21 -11 -8 -14 -14
-8 -14 15 0 16 -27 0 -36 -6 -4 -8 -3 -4 4 3 6 2 13 -3 16 -11 7 -9 -13 3 -33
7 -11 5 -13 -7 -8 -11 4 -14 2 -10 -9 3 -8 1 -20 -4 -27 -6 -6 -8 -28 -6 -47
3 -19 5 -43 6 -52 1 -9 6 -14 11 -11 5 4 7 -1 3 -10 -4 -12 -2 -14 10 -10 12
5 15 2 11 -9 -4 -8 -2 -21 4 -29 8 -11 9 -10 4 3 -3 12 0 18 10 18 8 0 13 -4
10 -9 -3 -5 1 -11 9 -15 8 -3 15 -13 15 -21 0 -9 -5 -13 -11 -9 -6 3 -4 -5 5
-18 9 -14 13 -28 9 -33 -5 -4 -2 -5 5 -1 9 5 9 13 2 26 -6 10 -6 21 -2 24 5 3
9 0 10 -7 0 -7 3 -22 6 -34 4 -18 0 -23 -17 -24 -17 -1 -18 -2 -4 -6 21 -5 21
-11 3 -54 -12 -28 -12 -40 -1 -71 7 -21 10 -40 6 -43 -3 -4 -1 -5 4 -3 6 2 11
-1 12 -6 2 -13 56 -46 65 -40 4 3 8 0 8 -6 0 -6 4 -9 9 -6 5 3 8 -2 7 -12 0
-9 5 -16 12 -14 8 1 11 -2 8 -7 -4 -5 1 -17 10 -26 15 -15 14 -15 -10 -9 -17
4 -26 2 -26 -6 0 -6 4 -9 9 -6 12 8 41 -3 41 -15 0 -5 -10 -8 -22 -6 -13 2
-17 2 -10 0 6 -3 12 -9 12 -14 0 -6 4 -8 9 -5 5 4 8 -2 6 -11 -2 -10 -4 -18
-5 -18 -1 0 -3 -12 -4 -27 -2 -16 0 -28 4 -28 8 0 23 -39 21 -52 -1 -5 5 -8
13 -8 8 0 21 -8 28 -17 7 -10 19 -18 27 -18 8 0 15 -6 17 -13 1 -7 0 -8 -3 -2
-2 5 -9 7 -15 4 -14 -9 11 -24 29 -17 7 3 10 10 6 16 -4 6 8 1 25 -12 18 -12
32 -25 33 -29 0 -4 3 -16 6 -27 11 -46 13 -96 3 -90 -6 4 -7 12 -4 18 4 7 3 8
-1 4 -12 -10 -15 -38 -4 -31 5 3 9 0 9 -7 0 -7 3 -9 7 -6 3 4 12 -5 20 -20 11
-21 11 -28 1 -35 -9 -6 -5 -7 9 -3 16 4 26 0 35 -14 7 -12 16 -21 21 -21 4 0
5 6 1 13 -6 9 -4 9 7 1 8 -6 22 -10 32 -9 10 2 21 -3 24 -11 4 -12 8 -12 21
-2 12 10 14 10 8 1 -4 -8 -2 -13 4 -13 7 0 10 -7 7 -15 -4 -8 -2 -17 3 -20 5
-3 11 3 13 12 4 17 5 17 6 1 0 -10 6 -18 12 -18 5 0 8 -4 4 -9 -3 -5 -1 -12 5
-16 5 -3 10 -15 10 -27 0 -66 79 -132 149 -124 22 2 34 -1 38 -11 5 -12 7 -12
14 -1 5 8 9 9 9 2 0 -6 -8 -18 -17 -25 -14 -12 -16 -12 -8 0 5 10 4 12 -3 7
-7 -4 -10 -2 -9 6 2 7 2 9 -1 5 -2 -4 -9 -3 -16 2 -8 6 -17 6 -26 -1 -13 -8
-12 -9 2 -5 9 3 22 -1 30 -10 11 -14 10 -15 -12 -9 l-25 8 23 -17 c17 -13 26
-14 37 -5 19 16 65 23 65 9 0 -6 10 -19 21 -28 19 -15 20 -20 9 -42 -13 -23
-12 -23 5 -9 17 14 17 14 7 -7 -17 -31 -15 -40 4 -17 8 10 13 14 10 8 -3 -6 6
-16 19 -22 14 -7 26 -18 26 -27 3 -28 4 -33 11 -40 3 -4 5 5 4 19 -2 14 1 26
5 26 5 0 9 -4 9 -8 0 -4 15 -7 33 -6 17 1 32 3 32 4 0 2 12 3 27 4 15 1 25 -1
22 -5 -4 -8 34 -39 48 -39 4 0 5 8 1 18 -5 13 -2 13 13 -4 10 -11 27 -28 36
-36 15 -14 16 -17 2 -22 -8 -3 -13 -2 -11 2 3 4 -1 12 -8 19 -10 10 -14 9 -19
-2 -3 -8 -12 -12 -21 -9 -21 8 -19 25 3 18 14 -5 14 -4 2 4 -18 14 -29 7 -27
-18 1 -20 20 -22 46 -6 11 7 13 5 7 -10 -16 -38 -17 -49 -4 -29 19 29 43 29
73 0 15 -13 32 -22 38 -18 7 4 8 0 3 -12 -5 -15 -4 -16 8 -6 11 9 18 7 33 -12
10 -13 30 -29 43 -36 21 -10 22 -10 10 1 -18 16 -24 38 -9 38 5 0 7 5 3 12 -5
7 -3 8 5 4 7 -5 10 -10 7 -13 -3 -3 -1 -13 4 -23 7 -14 20 -17 59 -15 36 2 49
-1 44 -9 -11 -17 -12 -37 -2 -31 5 3 19 1 31 -5 19 -8 20 -8 6 2 -14 10 -15
14 -1 34 14 22 13 23 -6 19 -12 -2 -21 0 -21 4 0 4 -7 8 -15 8 -8 0 -12 -4 -9
-9 3 -4 0 -8 -5 -8 -6 0 -11 4 -11 10 0 5 -6 9 -12 7 -7 -1 -12 4 -11 11 2 6
-2 12 -7 12 -6 0 -10 -4 -10 -8 0 -5 -6 -9 -13 -9 -18 0 -14 40 4 45 11 3 11
1 -1 -7 -14 -10 -7 -16 14 -12 4 1 14 -4 22 -10 17 -14 19 2 2 19 -9 9 -9 12
-1 12 7 0 14 -8 17 -18 4 -10 13 -19 22 -19 8 0 13 6 10 13 -8 20 21 5 37 -19
8 -12 13 -32 11 -44 -3 -19 1 -22 20 -21 14 1 22 6 19 12 -4 5 -1 6 6 2 7 -5
10 -15 6 -23 -5 -14 -3 -14 12 -2 15 12 16 12 10 -3 -14 -36 -17 -52 -6 -30 7
12 16 22 21 22 5 0 6 -4 3 -10 -3 -5 -1 -10 4 -10 14 0 14 13 1 26 -7 7 -6 11
5 11 14 0 19 -14 16 -47 -1 -12 1 -11 9 2 6 9 17 15 25 12 8 -4 13 -10 10 -14
-3 -5 1 -7 7 -6 21 3 38 16 38 29 0 7 -4 6 -10 -3 -9 -13 -10 -13 -10 0 0 13
-1 13 -10 0 -6 -9 -10 -10 -10 -3 0 6 -8 10 -18 8 -11 -2 -19 3 -19 10 0 8 4
12 8 9 4 -2 11 1 14 6 5 8 14 5 27 -7 20 -18 21 -18 13 7 l-8 25 23 -25 c18
-21 21 -22 15 -5 -3 11 -3 16 1 13 3 -4 14 1 23 10 9 10 12 12 7 5 -5 -8 -6
-16 -3 -19 3 -3 11 3 19 15 l12 20 23 -21 c24 -22 32 -12 11 12 -11 12 -10 12
4 1 16 -12 22 -55 6 -45 -5 3 -8 2 -7 -3 4 -22 -2 -25 -17 -7 -15 18 -15 18
-5 -3 8 -16 7 -22 -5 -27 -9 -4 -24 -1 -33 6 -14 11 -14 11 -4 -3 7 -9 9 -19
5 -24 -14 -15 43 18 67 39 21 18 23 19 18 3 -4 -10 -3 -16 2 -13 5 3 11 0 14
-7 3 -8 16 -13 28 -12 22 2 54 -20 54 -36 0 -4 3 -10 7 -14 9 -9 5 17 -6 33
-4 7 -5 16 -1 20 3 3 10 0 14 -7 5 -7 14 -10 20 -7 6 4 11 3 11 -3 0 -5 -6
-11 -12 -14 -7 -3 -3 -4 8 -4 15 1 20 6 16 16 -3 9 -1 12 6 7 6 -3 13 -2 17 4
3 5 11 10 16 10 6 0 7 -4 4 -10 -3 -5 -1 -10 5 -10 7 0 10 6 7 14 -4 9 0 13
11 11 9 -2 19 -4 22 -4 3 -1 -1 -5 -8 -10 -11 -7 -11 -9 0 -14 9 -3 14 2 15
14 1 10 -1 19 -5 20 -4 0 -17 2 -29 5 -12 2 -25 -1 -28 -6 -3 -5 -12 -7 -20
-3 -8 3 -15 0 -15 -7 0 -9 -3 -10 -13 -1 -8 6 -17 8 -20 4 -4 -3 -7 -1 -7 7 0
8 -4 9 -12 3 -16 -13 -49 -13 -41 0 3 5 -4 4 -16 -2 -22 -12 -28 -2 -10 16 9
9 17 8 34 -3 15 -10 25 -11 29 -5 4 7 15 7 31 1 18 -7 25 -5 29 7 5 12 9 13
21 3 12 -10 15 -10 15 3 0 9 5 19 12 23 8 5 9 2 5 -9 -3 -9 -2 -19 3 -22 9 -6
14 8 11 28 0 4 4 7 10 7 6 0 8 -9 4 -20 -4 -11 -3 -20 2 -19 21 4 34 -2 27
-12 -3 -6 5 -4 19 6 15 10 28 12 31 6 4 -5 -3 -12 -14 -16 -23 -7 -27 -22 -5
-22 8 0 12 4 10 8 -5 7 24 23 38 21 4 -1 7 3 7 10 0 9 3 9 11 1 6 -6 18 -9 27
-6 11 5 13 2 7 -8 -6 -11 -5 -12 6 -1 22 21 33 13 13 -10 l-19 -22 29 22 c28
21 30 22 50 5 19 -17 20 -17 7 0 -17 21 -4 22 20 1 11 -10 19 -12 24 -4 3 6 3
10 -2 9 -20 -3 -27 2 -14 10 10 6 25 4 44 -5 16 -9 31 -13 34 -11 2 3 -5 8
-16 12 -12 3 -21 13 -21 21 0 8 -5 14 -11 14 -5 0 -8 -4 -4 -9 3 -6 -4 -8 -15
-6 -11 2 -20 -2 -20 -8 0 -8 -3 -8 -8 -2 -9 12 -36 19 -28 7 7 -12 -26 -11
-41 1 -9 6 -13 5 -13 -4 0 -9 -3 -10 -8 -3 -8 12 -52 11 -72 -1 -9 -6 -11 -4
-5 5 6 9 4 11 -5 5 -9 -6 -11 -4 -5 6 8 12 6 12 -8 0 -9 -7 -17 -10 -17 -5 0
5 -5 2 -10 -6 -7 -11 -10 -11 -10 -2 0 7 -4 11 -9 8 -5 -3 -9 6 -9 21 l0 26
13 -23 c8 -15 15 -19 19 -11 4 6 12 9 17 6 5 -4 9 2 10 12 0 15 2 14 11 -4 6
-13 15 -23 20 -23 11 0 10 17 -2 25 -5 3 -10 12 -9 18 0 9 2 8 6 -1 2 -6 10
-9 15 -6 7 5 8 2 3 -6 -6 -10 -4 -12 8 -7 9 3 16 3 16 -1 -3 -19 2 -23 15 -13
10 8 16 9 21 1 3 -6 11 -7 17 -4 7 4 8 2 4 -4 -4 -7 -2 -12 3 -12 6 0 11 5 11
10 0 6 11 8 24 6 14 -2 30 1 35 8 14 17 71 9 65 -9 -3 -7 -1 -16 4 -19 6 -4 9
4 8 18 -2 14 0 25 3 24 18 -2 21 4 11 22 -9 16 -8 19 6 13 11 -4 15 -3 10 5
-9 15 12 26 28 13 13 -11 26 -5 26 11 0 5 -4 6 -10 3 -5 -3 -10 -1 -10 4 0 15
15 14 29 -3 8 -10 9 -16 1 -19 -6 -3 -5 -4 2 -3 7 2 12 12 11 22 -1 18 -1 18
12 1 10 -13 14 -15 18 -5 3 7 5 4 4 -8 -1 -11 -7 -21 -14 -21 -6 0 -9 5 -6 11
4 5 -9 -1 -28 -14 -19 -13 -31 -20 -27 -15 9 9 -9 35 -24 35 -6 0 -5 -7 2 -15
11 -14 7 -19 -12 -16 -4 0 -5 -5 -2 -13 3 -8 1 -17 -5 -21 -6 -3 -11 -12 -11
-18 0 -7 5 -4 11 6 8 14 14 16 25 6 10 -8 14 -8 14 0 0 6 -4 11 -10 11 -5 0
-10 5 -10 10 0 10 47 6 58 -5 3 -3 16 4 28 16 14 13 24 17 29 10 3 -6 1 -11
-4 -11 -6 0 -10 -9 -8 -20 4 -28 15 -35 13 -9 0 12 5 24 13 27 9 3 11 0 6 -8
-9 -14 6 -8 34 14 8 6 24 11 35 11 12 0 37 12 56 25 29 20 33 21 27 6 -6 -15
-5 -17 6 -8 8 7 18 8 22 4 5 -4 4 -1 0 7 -6 11 -4 13 11 7 10 -4 15 -4 12 0
-4 4 -3 15 3 26 8 15 13 17 25 7 10 -8 14 -8 14 0 0 6 -5 11 -11 11 -5 0 -7 5
-3 11 5 8 13 4 26 -12 16 -20 16 -17 -2 14 -12 21 -21 39 -19 40 2 1 15 11 29
22 15 12 20 14 12 4 -10 -13 -8 -16 18 -16 16 0 27 3 25 7 -2 3 5 7 16 7 21 2
24 -5 8 -27 -9 -12 -10 -11 -4 5 5 15 3 17 -5 8 -8 -7 -9 -17 -2 -29 9 -16 10
-15 17 5 3 11 11 19 16 15 5 -3 7 -10 4 -15 -4 -5 -1 -9 4 -9 13 0 14 17 2 24
-8 5 -8 14 -2 45 1 2 8 -2 16 -9 12 -10 15 -10 15 4 0 9 5 16 11 16 5 0 7 5 4
10 -4 6 -3 10 2 9 4 -1 16 1 26 6 15 6 16 10 5 16 -9 6 -9 9 -1 9 6 0 14 -4
17 -9 7 -11 -19 -46 -36 -46 -7 -1 -12 -6 -11 -13 3 -11 -10 -16 -29 -13 -12
2 -10 -17 2 -24 6 -3 10 -1 10 5 0 6 5 8 10 5 6 -4 7 -11 4 -17 -4 -7 -2 -8 4
-4 6 4 9 13 6 20 -3 7 2 19 11 26 13 11 15 9 13 -10 -2 -13 3 -24 10 -26 7 -1
8 0 2 3 -17 8 -11 26 6 19 14 -5 15 -4 4 9 -14 17 0 21 17 4 9 -9 11 -7 9 7
-2 11 -10 18 -19 16 -11 -2 -15 2 -11 13 3 8 11 12 18 8 6 -4 3 5 -6 20 -23
34 -23 33 11 45 25 9 29 8 24 -4 -4 -10 0 -12 11 -8 9 3 13 10 10 15 -3 5 1 6
9 3 8 -3 14 1 14 10 0 11 -7 14 -23 10 -26 -7 -37 6 -22 26 8 12 9 12 4 -2 -6
-19 2 -22 28 -12 9 3 13 11 9 18 -4 7 -1 6 7 -1 11 -10 17 -9 32 4 14 13 21
14 30 5 15 -15 29 -15 25 0 -1 7 3 12 8 13 6 0 24 12 40 27 16 15 32 25 37 22
4 -3 8 -1 8 5 0 5 -6 12 -12 15 -7 3 -4 4 8 1 14 -4 21 0 21 10 0 10 -6 14
-16 10 -11 -3 -10 0 3 10 11 8 23 15 28 15 4 0 6 6 4 13 -1 6 -1 9 1 4 3 -4 9
-4 14 -1 6 3 5 12 -3 22 -11 13 -11 14 1 8 10 -7 12 -3 7 15 -3 13 -3 18 0 11
4 -9 13 -7 35 9 16 11 36 22 43 23 8 1 21 7 29 14 12 10 16 10 20 -2 4 -11 1
-13 -10 -9 -12 5 -15 2 -10 -10 4 -12 2 -14 -10 -10 -13 5 -12 2 3 -13 10 -10
30 -20 44 -20 25 -1 25 -1 -3 11 -25 10 -26 13 -13 24 9 7 13 17 10 22 -3 5 0
17 5 26 8 14 11 15 11 3 1 -9 5 -6 10 8 5 12 17 22 25 22 10 0 13 -5 9 -12 -4
-7 -3 -8 4 -4 6 4 8 14 5 24 -3 9 -3 14 2 10 10 -10 35 10 35 28 0 18 -12 18
-36 -2 -18 -15 -18 -15 3 -4 19 9 22 8 17 -5 -4 -9 -9 -13 -12 -11 -3 3 -11 1
-18 -5 -9 -8 -12 -6 -9 8 2 10 4 21 4 24 1 3 12 11 26 17 22 10 26 9 39 -16 9
-15 15 -22 16 -17 0 6 -9 23 -19 39 -11 16 -18 37 -16 47 2 11 0 19 -6 19 -5
0 -9 5 -9 11 0 8 4 9 13 0 14 -11 27 -5 27 11 0 5 -4 7 -9 4 -11 -7 -8 21 4
31 4 4 6 4 3 -2 -3 -5 0 -16 7 -22 11 -10 15 -9 20 6 3 11 26 34 50 53 38 29
59 58 57 79 -1 4 10 17 23 29 14 13 25 18 25 12 0 -6 -10 -18 -22 -26 -12 -9
-19 -16 -15 -16 4 0 1 -13 -8 -30 -9 -16 -21 -30 -28 -30 -8 0 -7 -4 3 -10 9
-6 11 -10 3 -10 -7 0 -19 -12 -28 -27 -13 -23 -15 -24 -10 -6 5 18 3 22 -9 17
-8 -3 -13 -11 -10 -18 2 -6 -2 -20 -11 -31 -15 -20 -15 -20 -9 0 4 17 3 16 -8
-3 -8 -12 -18 -19 -22 -15 -4 4 -6 1 -4 -7 2 -8 -2 -14 -9 -13 -12 3 -12 -14
0 -34 7 -11 67 -36 67 -28 0 3 -16 11 -36 20 -23 10 -33 19 -28 27 6 9 9 9 12
0 2 -7 13 -12 25 -11 16 0 18 2 7 7 -17 8 -25 32 -11 32 5 0 11 -3 14 -7 2 -5
2 -2 0 5 -2 9 3 11 16 7 12 -3 21 0 25 11 5 14 9 14 23 3 14 -12 16 -12 8 0
-6 11 -4 13 7 9 8 -4 15 0 15 7 0 10 -5 11 -17 5 -17 -9 -30 -4 -30 11 0 5 6
7 13 5 6 -1 9 -1 5 1 -5 3 -8 9 -8 14 0 6 5 7 10 4 6 -3 11 -1 11 4 1 6 2 17
3 24 0 6 11 13 24 15 12 2 23 8 23 13 1 5 2 15 3 22 1 6 7 11 14 10 7 -2 12 2
12 7 0 14 -13 13 -28 -2 -21 -21 -13 2 13 36 17 22 23 40 19 59 -2 15 -1 27 3
26 26 -4 34 1 21 15 -11 12 -14 12 -21 0 -5 -8 -12 -12 -18 -9 -12 8 -11 -9 2
-22 7 -7 5 -12 -6 -17 -13 -5 -16 -2 -11 10 3 9 1 14 -5 12 -6 -2 -10 -7 -9
-12 1 -5 -4 -13 -12 -18 -10 -8 -9 -9 3 -5 9 3 16 -1 16 -9 0 -26 -30 3 -33
32 -2 17 0 24 5 16 6 -9 12 -8 26 8 10 11 22 17 26 14 5 -3 9 -1 9 5 0 18 -17
21 -30 6 -7 -8 -16 -15 -21 -15 -5 0 0 9 12 21 15 15 24 18 33 10 7 -6 16 -8
19 -4 4 3 17 -2 28 -13 l22 -19 -17 26 c-10 16 -14 34 -9 45 6 17 5 17 -10 5
-9 -7 -17 -9 -17 -5 0 9 39 38 52 39 12 0 21 15 9 15 -8 0 -7 5 3 16 9 8 13
21 10 27 -5 9 -4 9 6 0 7 -7 9 -17 4 -25 -14 -21 -13 -36 2 -42 11 -4 12 -2 4
14 -6 11 -6 21 -1 25 5 3 12 -3 14 -12 4 -17 5 -17 6 0 0 10 -5 28 -13 40 -7
12 -12 33 -11 47 1 14 0 30 -3 35 -4 6 -7 15 -8 20 -1 6 -5 19 -9 30 -4 12 -3
15 2 9 4 -6 15 -10 24 -9 9 2 16 -3 16 -11 0 -7 -4 -11 -8 -9 -4 3 -10 -2 -13
-11 -6 -15 -4 -15 17 -1 18 12 27 13 36 4 8 -8 11 -8 11 1 0 7 -5 12 -11 12
-5 0 -7 5 -3 12 4 7 3 8 -5 4 -6 -4 -14 0 -17 8 -3 9 -9 14 -13 12 -11 -7 -36
12 -28 21 5 4 12 1 17 -7 6 -8 10 -11 10 -6 0 5 6 4 13 -2 9 -8 17 -8 27 0 12
8 12 9 -3 4 -15 -5 -17 -1 -13 24 2 16 0 32 -5 36 -5 3 -9 11 -9 17 0 7 7 4
14 -6 11 -15 15 -15 19 -3 3 8 1 17 -6 20 -9 3 -8 5 1 5 7 1 10 6 6 13 -4 7
-3 8 4 4 6 -3 16 3 22 14 6 11 8 20 4 20 -3 0 -2 6 5 13 14 17 9 90 -7 110 -7
8 -9 23 -5 32 4 12 3 16 -5 11 -11 -7 -9 24 2 43 4 5 0 12 -6 15 -7 2 -3 4 9
2 12 -1 26 -6 30 -10 5 -4 2 -6 -6 -4 -7 2 -16 -3 -18 -10 -3 -7 1 -11 7 -10
7 2 15 -4 17 -12 4 -12 3 -12 -5 -1 -7 9 -12 10 -16 2 -4 -6 -3 -11 3 -11 5 0
8 -11 7 -25 -2 -13 1 -22 6 -19 5 3 7 12 4 20 -3 7 -1 16 4 19 6 4 10 1 10 -5
0 -6 5 -8 10 -5 6 3 10 11 10 16 0 6 -5 7 -12 3 -8 -5 -9 -2 -5 10 4 10 3 15
-3 11 -6 -3 -10 -1 -10 5 0 6 11 16 25 22 24 11 24 12 9 30 -16 16 -6 27 10
11 10 -10 46 -11 40 -1 -4 5 -12 7 -20 4 -7 -3 -18 3 -24 14 -15 28 -11 38 7
15 12 -16 14 -16 10 -3 -4 11 0 21 11 27 16 10 16 10 0 11 -10 0 -18 -4 -18
-10 0 -5 -6 -9 -12 -7 -7 1 -12 -6 -12 -15 1 -10 -2 -15 -7 -13 -4 3 -6 -4 -4
-15 3 -13 0 -18 -7 -14 -7 4 -8 2 -4 -5 4 -6 12 -9 17 -6 5 4 9 2 9 -3 0 -6
-7 -12 -15 -16 -9 -3 -15 0 -15 9 0 9 -6 12 -15 9 -8 -4 -15 -1 -15 6 0 6 4 9
9 6 5 -3 15 2 22 11 12 14 11 15 -10 8 -21 -6 -22 -5 -10 8 8 8 18 12 23 9 5
-3 7 2 3 11 -4 10 -2 16 5 14 7 -1 13 4 14 11 1 6 2 17 3 22 0 6 6 10 12 10 8
0 7 -6 -2 -17 -12 -16 -12 -17 2 -6 9 7 18 11 21 8 2 -2 4 10 4 28 -1 24 -5
31 -17 29 -21 -3 -20 39 1 46 13 5 13 3 0 -14 -11 -15 -11 -16 0 -7 20 19 21
43 2 36 -13 -3 -13 -1 2 11 11 9 15 16 9 16 -14 0 -34 -25 -26 -33 3 -4 3 -7
-1 -7 -17 0 -44 45 -35 57 7 7 6 14 -1 18 -5 3 -10 0 -10 -7 0 -9 -3 -9 -10 2
-5 8 -10 20 -10 25 0 6 4 4 9 -4 6 -9 11 -10 15 -2 4 6 -3 15 -16 20 -17 7
-19 10 -5 10 9 1 17 6 17 12 0 5 -4 8 -8 5 -4 -2 -8 4 -8 15 0 19 1 19 13 3 7
-10 13 -16 14 -13 7 37 4 49 -10 44 -14 -5 -14 -4 0 7 8 7 18 21 22 31 4 10
11 16 15 13 5 -3 18 1 28 9 13 11 14 13 3 10 -10 -4 -16 0 -16 10 0 11 7 14
21 10 19 -5 19 -5 3 5 -22 14 -37 5 -32 -20 2 -12 0 -18 -5 -15 -4 3 -6 18 -4
35 6 33 -12 72 -51 113 -14 15 -21 27 -15 27 6 0 8 5 5 10 -4 6 -10 8 -15 5
-4 -3 -14 3 -21 13 -13 15 -12 16 3 4 10 -8 19 -9 22 -3 3 5 1 11 -5 13 -14 5
-22 58 -9 58 5 0 12 -5 16 -12 4 -7 3 -8 -4 -4 -8 5 -10 1 -5 -9 4 -12 8 -13
13 -5 5 8 9 7 13 -5 4 -9 3 -13 -3 -10 -6 3 -10 1 -10 -4 0 -6 7 -11 15 -11
18 0 18 5 5 31 -9 15 -7 19 5 19 10 0 13 -5 9 -12 -4 -7 -3 -10 1 -5 13 12 16
47 4 47 -5 0 -8 -4 -5 -9 3 -5 -3 -11 -14 -14 -13 -3 -20 0 -20 9 0 7 -6 12
-12 10 -7 -1 -10 -1 -5 1 4 3 4 10 1 15 -4 7 -2 8 5 4 8 -5 11 1 9 21 -1 15 4
38 10 50 14 26 16 45 2 23 -5 -8 -12 -11 -16 -7 -4 3 -1 15 7 24 7 10 10 15 5
11 -4 -4 -14 -1 -21 5 -10 10 -9 15 9 25 l21 13 -22 -6 c-27 -8 -63 10 -63 31
0 11 5 14 18 9 13 -5 14 -4 5 6 -9 9 -16 9 -26 1 -20 -17 -65 31 -48 52 7 9 8
17 2 20 -5 3 -11 0 -13 -6 -3 -7 -4 6 -4 29 0 23 5 44 11 47 7 2 12 -2 12 -10
0 -8 -4 -14 -9 -14 -4 0 -8 -5 -8 -11 0 -5 4 -7 10 -4 6 4 7 -1 4 -12 -5 -15
-4 -15 5 -3 5 8 13 11 18 7 4 -5 1 -12 -7 -17 -8 -6 -11 -10 -6 -10 5 0 3 -7
-4 -15 -7 -9 -10 -18 -7 -22 4 -3 9 2 13 11 3 9 9 14 13 11 12 -7 6 52 -7 67
-11 14 -12 17 -12 49 0 11 -4 18 -9 15 -11 -7 -9 13 3 32 5 8 3 12 -6 10 -8
-2 -12 4 -10 16 2 11 -1 15 -7 11 -6 -3 -11 1 -11 9 0 9 -7 16 -16 16 -11 0
-14 6 -10 23 3 12 3 16 0 10 -7 -16 -34 -17 -34 -2 0 5 -4 7 -10 4 -5 -3 -17
3 -27 14 -9 11 -21 17 -26 14 -6 -3 -7 -1 -4 4 4 6 0 14 -9 17 -8 3 -12 11 -9
16 4 6 2 17 -5 25 -6 7 -7 16 -2 19 5 3 7 22 6 43 -2 21 0 33 4 27 10 -15 39
-13 39 3 0 8 -4 10 -12 3 -15 -13 -58 27 -51 46 3 8 -1 14 -8 14 -7 0 -21 9
-31 20 -10 11 -24 20 -31 20 -7 0 -15 8 -17 18 -4 16 -5 16 -6 0 -1 -22 -14
-23 -31 -3 -7 9 -15 13 -17 11 -8 -7 -42 27 -37 36 3 4 0 8 -6 8 -7 0 -10 7
-6 15 3 8 2 15 -2 15 -11 0 -13 48 -3 54 5 3 9 -4 10 -17 1 -42 4 -56 13 -51
4 3 4 13 -1 23 -5 9 -9 26 -8 36 1 13 -3 19 -14 17 -9 -1 -16 5 -17 13 -1 8
-3 22 -4 30 -1 8 -5 12 -10 9 -4 -3 -11 2 -14 10 -3 9 -12 16 -19 16 -7 0 -15
4 -17 10 -1 5 -18 10 -36 12 -20 1 -38 10 -43 20 -5 10 -16 18 -24 18 -15 0
-19 11 -15 40 1 10 -3 9 -13 -5 -9 -11 -19 -16 -23 -12 -5 4 -2 12 6 17 11 7
10 9 -7 7 -12 0 -19 -6 -16 -12 3 -5 0 -5 -7 2 -19 17 -4 31 27 25 16 -2 26
-2 23 1 -3 3 -17 7 -32 9 -29 4 -51 18 -28 18 8 0 5 7 -8 19 -22 18 -31 37
-12 26 6 -3 7 1 3 10 -3 9 -9 12 -12 7 -3 -5 -18 -2 -33 8 -16 9 -25 21 -20
26 4 4 -1 2 -10 -5 -10 -7 -18 -10 -18 -5 0 5 -13 9 -30 9 -16 0 -30 -3 -30
-7 0 -4 -9 -5 -21 -3 -37 7 -79 30 -79 42 0 7 -9 17 -21 23 -11 7 -18 14 -15
18 7 7 -22 54 -41 65 -7 5 -12 11 -9 15 2 4 -6 8 -17 8 -12 1 -31 3 -42 4 -11
1 -33 -1 -48 -4 -22 -5 -27 -4 -21 6 4 7 -1 5 -12 -4 -20 -17 -56 -16 -80 3
-6 5 -13 7 -16 4 -2 -3 -5 2 -5 10 0 10 6 14 16 10 13 -5 13 -4 4 6 -10 10
-15 10 -27 0 -12 -10 -17 -6 -31 22 -14 30 -55 59 -82 59 -4 0 -16 4 -25 9
-11 6 -19 5 -24 -2 -3 -6 -17 -9 -30 -6 -13 2 -21 1 -19 -3 3 -5 -2 -10 -9
-13 -8 -3 -17 -1 -20 6 -2 7 -5 4 -5 -6 -1 -21 -39 -19 -67 3 -14 12 -16 12
-10 1 6 -9 5 -12 -4 -9 -7 2 -14 12 -16 22 -1 10 -6 21 -10 24 -4 4 -4 -1 -1
-10 9 -26 -8 -22 -22 5 -7 12 -24 28 -39 34 -34 15 -102 23 -102 12 0 -5 -5
-9 -11 -9 -5 0 -27 -11 -47 -25 -43 -29 -56 -32 -48 -7 5 15 4 15 -6 2 -26
-30 -65 -21 -59 13 1 5 -3 6 -9 2 -6 -3 -8 -11 -5 -16 4 -5 1 -9 -4 -9 -6 0
-11 3 -11 8 0 4 -12 15 -26 26 -27 19 -84 28 -122 17z m1534 -533 c3 -9 11
-15 18 -12 7 3 16 -2 19 -10 4 -9 2 -16 -3 -16 -6 0 -10 5 -10 11 0 5 -4 8 -9
4 -5 -3 -16 2 -24 10 -9 8 -20 15 -26 15 -6 0 -11 4 -11 8 0 16 40 7 46 -10z
m811 -1727 c-1 -11 -6 -17 -14 -14 -10 4 -11 9 -2 19 15 19 18 18 16 -5z
m-150 -491 c1 -11 -2 -18 -8 -15 -11 7 -12 35 -1 35 4 0 8 -9 9 -20z m-102
-319 c-6 -5 -25 10 -25 20 0 5 6 4 14 -3 8 -7 12 -15 11 -17z m-15 -99 c0 -13
-12 -22 -22 -16 -10 6 -1 24 13 24 5 0 9 -4 9 -8z m-40 -26 c0 -2 -7 -6 -15
-10 -8 -3 -15 -1 -15 4 0 6 7 10 15 10 8 0 15 -2 15 -4z m5 -77 c-10 -15 -25
-10 -19 6 4 8 10 12 15 9 5 -3 7 -10 4 -15z m-75 -104 c0 -2 -7 -8 -15 -15
-12 -10 -15 -10 -15 2 0 8 7 15 15 15 8 0 15 -1 15 -2z m-130 -55 c0 -5 -7 -7
-15 -4 -8 4 -15 8 -15 10 0 2 7 4 15 4 8 0 15 -4 15 -10z m4 -29 c4 -5 -4 -7
-16 -3 -16 4 -19 2 -13 -8 5 -9 4 -11 -4 -6 -6 4 -9 12 -6 17 8 12 32 12 39 0z
m-270 -251 c-6 -6 -10 -3 -10 10 0 13 4 16 10 10 7 -7 7 -13 0 -20z m-260
-176 c3 -8 2 -12 -4 -9 -6 3 -10 10 -10 16 0 14 7 11 14 -7z m-2014 -125 c0
-6 -4 -7 -10 -4 -5 3 -10 11 -10 16 0 6 5 7 10 4 6 -3 10 -11 10 -16z m1770
-8 c0 -5 -7 -12 -16 -15 -14 -5 -15 -4 -4 9 14 17 20 19 20 6z m-59 -24 c-10
-9 -11 -8 -5 6 3 10 9 15 12 12 3 -3 0 -11 -7 -18z m-1 -22 c0 -1 -12 -2 -26
-2 -17 0 -22 2 -13 7 10 7 39 3 39 -5z m27 8 c-4 -3 -2 -12 3 -19 8 -9 3 -18
-16 -33 -15 -12 -23 -21 -18 -21 5 0 1 -5 -9 -11 -9 -5 -21 -8 -26 -4 -5 3
-12 1 -16 -4 -3 -6 -13 -7 -23 -4 -9 3 -14 3 -10 -2 4 -4 3 -14 -3 -22 -9 -10
-15 -10 -25 -2 -11 9 -14 8 -14 0 0 -7 -4 -10 -9 -6 -5 3 -16 -2 -25 -10 -12
-13 -20 -14 -36 -5 -24 13 -22 32 2 36 11 1 15 -4 13 -17 -2 -11 0 -17 6 -14
5 4 9 13 9 22 0 10 6 13 16 9 8 -3 24 3 36 13 11 11 27 17 36 14 10 -4 13 -2
8 5 -4 7 -2 20 4 29 10 16 10 16 5 -3 -4 -14 -1 -21 10 -21 10 0 14 6 10 16
-5 13 -4 14 6 4 7 -7 17 -13 23 -13 6 0 5 5 -2 12 -21 21 -13 29 21 23 26 -5
30 -4 20 6 -16 16 -17 29 -1 29 6 0 8 -3 5 -7z m-1520 -105 c-1 -10 -2 -18 -4
-18 -1 0 -7 8 -12 18 -7 14 -6 19 4 19 7 0 13 -9 12 -19z m1138 2 c-3 -5 -12
-10 -18 -10 -7 0 -6 4 3 10 19 12 23 12 15 0z m-1060 -20 c3 -5 1 -10 -4 -10
-6 0 -11 5 -11 10 0 6 2 10 4 10 3 0 8 -4 11 -10z m1045 -25 c14 -19 14 -19
-2 -6 -10 7 -18 18 -18 24 0 6 1 8 3 6 1 -2 9 -13 17 -24z m-965 -4 c-3 -6
-11 -11 -17 -11 -6 0 -6 6 2 15 14 17 26 13 15 -4z m55 4 c0 -8 -4 -15 -10
-15 -5 0 -7 7 -4 15 4 8 8 15 10 15 2 0 4 -7 4 -15z m205 5 c-3 -5 -12 -10
-18 -10 -7 0 -6 4 3 10 19 12 23 12 15 0z m824 -6 c-6 -7 -17 -10 -26 -7 -17
7 -2 20 22 20 11 0 12 -4 4 -13z m-145 -2 c3 -5 -1 -9 -9 -9 -8 0 -12 4 -9 9
3 4 7 8 9 8 2 0 6 -4 9 -8z m-274 -6 c0 -3 -4 -8 -10 -11 -5 -3 -10 -1 -10 4
0 6 5 11 10 11 6 0 10 -2 10 -4z m-267 -22 c3 -3 3 -13 0 -21 -5 -12 -7 -12
-14 -1 -15 23 -4 40 14 22z"/>
<path d="M3070 325 c-10 -12 -10 -15 2 -15 8 0 15 7 15 15 0 8 -1 15 -2 15 -2
0 -8 -7 -15 -15z"/>
<path d="M1980 4446 c0 -2 8 -10 18 -17 15 -13 16 -12 3 4 -13 16 -21 21 -21
13z"/>
<path d="M2726 4418 c3 -4 9 -8 15 -8 5 0 9 4 9 8 0 5 -7 9 -15 9 -8 0 -12 -4
-9 -9z"/>
<path d="M3029 4383 c-13 -16 -12 -17 4 -4 16 13 21 21 13 21 -2 0 -10 -8 -17
-17z"/>
<path d="M1626 4338 c3 -5 10 -6 15 -3 13 9 11 12 -6 12 -8 0 -12 -4 -9 -9z"/>
<path d="M1720 4340 c-9 -6 -10 -10 -3 -10 6 0 15 5 18 10 8 12 4 12 -15 0z"/>
<path d="M3096 4333 c-6 -14 -5 -15 5 -6 7 7 10 15 7 18 -3 3 -9 -2 -12 -12z"/>
<path d="M3375 4241 c-3 -5 -2 -12 3 -15 5 -3 9 1 9 9 0 17 -3 19 -12 6z"/>
<path d="M3378 4183 c6 -3 10 -9 6 -14 -8 -14 2 -11 14 4 8 10 6 13 -11 14
-12 0 -16 -1 -9 -4z"/>
<path d="M3427 4156 c-4 -10 -3 -15 3 -11 6 3 10 1 10 -6 0 -7 3 -10 6 -6 3 3
2 13 -4 22 -8 16 -9 16 -15 1z"/>
<path d="M3450 4166 c0 -2 7 -7 16 -10 8 -3 12 -2 9 4 -6 10 -25 14 -25 6z"/>
<path d="M3490 4161 c0 -6 4 -13 10 -16 6 -3 7 1 4 9 -7 18 -14 21 -14 7z"/>
<path d="M3646 4078 c3 -5 10 -6 15 -3 13 9 11 12 -6 12 -8 0 -12 -4 -9 -9z"/>
<path d="M3667 4039 c7 -7 15 -10 18 -7 3 3 -2 9 -12 12 -14 6 -15 5 -6 -5z"/>
<path d="M3753 3965 c0 -8 4 -12 9 -9 5 3 6 10 3 15 -9 13 -12 11 -12 -6z"/>
<path d="M3906 3842 c-3 -5 1 -9 9 -9 8 0 12 4 9 9 -3 4 -7 8 -9 8 -2 0 -6 -4
-9 -8z"/>
<path d="M3940 3780 c0 -5 5 -10 11 -10 5 0 7 -5 3 -12 -4 -7 -3 -8 5 -4 9 6
9 11 0 22 -14 17 -19 18 -19 4z"/>
<path d="M3945 3732 c-13 -9 -19 -35 -6 -28 5 4 11 1 13 -5 2 -6 12 -1 22 10
11 12 14 21 8 21 -7 0 -12 -4 -12 -10 0 -5 -5 -10 -11 -10 -6 0 -9 7 -5 15 6
17 5 18 -9 7z"/>
<path d="M736 3718 c3 -5 10 -6 15 -3 13 9 11 12 -6 12 -8 0 -12 -4 -9 -9z"/>
<path d="M3980 3695 c-9 -10 -9 -15 -1 -15 6 0 11 5 11 11 0 6 7 8 16 5 8 -3
12 -2 9 4 -9 14 -21 12 -35 -5z"/>
<path d="M4050 3681 c0 -6 4 -13 10 -16 6 -3 7 1 4 9 -7 18 -14 21 -14 7z"/>
<path d="M4136 3602 c-2 -4 -1 -14 4 -22 7 -11 9 -9 7 8 -1 24 -3 26 -11 14z"/>
<path d="M4133 3499 c3 -9 1 -21 -5 -27 -8 -8 -7 -13 6 -18 14 -5 14 -9 4 -23
-7 -9 -9 -13 -4 -9 4 3 21 -8 38 -25 16 -18 27 -27 24 -20 -4 6 2 16 11 22 10
6 13 11 8 11 -6 0 -17 -6 -24 -12 -12 -11 -13 -10 -7 6 4 13 0 23 -14 33 -11
8 -20 19 -20 25 0 6 8 4 18 -5 16 -15 18 -15 18 2 0 12 -5 17 -15 13 -10 -4
-12 -1 -6 8 5 8 4 11 -3 6 -6 -3 -16 2 -22 11 -9 14 -10 15 -7 2z m37 -74 c7
-9 8 -15 2 -15 -5 0 -12 7 -16 15 -3 8 -4 15 -2 15 2 0 9 -7 16 -15z"/>
<path d="M4180 3500 c8 -5 20 -10 25 -10 6 0 3 5 -5 10 -8 5 -19 10 -25 10 -5
0 -3 -5 5 -10z"/>
<path d="M593 3483 c4 -3 1 -13 -6 -22 -11 -14 -10 -14 6 -2 20 15 22 31 5 31
-6 0 -8 -3 -5 -7z"/>
<path d="M535 3440 c3 -5 8 -10 11 -10 2 0 4 5 4 10 0 6 -5 10 -11 10 -5 0 -7
-4 -4 -10z"/>
<path d="M4233 3398 c1 -7 -4 -12 -11 -10 -8 1 -11 -2 -7 -8 5 -8 11 -8 21 1
7 6 11 15 8 20 -8 13 -14 11 -11 -3z"/>
<path d="M4273 3355 c0 -8 4 -12 9 -9 5 3 6 10 3 15 -9 13 -12 11 -12 -6z"/>
<path d="M4305 3300 c-3 -6 1 -7 9 -4 18 7 21 14 7 14 -6 0 -13 -4 -16 -10z"/>
<path d="M4316 3262 c-2 -4 -1 -14 4 -22 7 -11 9 -9 7 8 -1 24 -3 26 -11 14z"/>
<path d="M430 3195 c5 -7 6 -16 2 -21 -4 -5 -3 -5 2 -1 15 12 15 34 0 34 -9 0
-11 -4 -4 -12z"/>
<path d="M4370 3201 c0 -6 4 -13 10 -16 6 -3 7 1 4 9 -7 18 -14 21 -14 7z"/>
<path d="M4330 3191 c0 -6 4 -13 10 -16 6 -3 7 1 4 9 -7 18 -14 21 -14 7z"/>
<path d="M4385 3140 c-3 -6 1 -7 9 -4 18 7 21 14 7 14 -6 0 -13 -4 -16 -10z"/>
<path d="M4350 3119 c0 -5 5 -7 10 -4 6 3 10 8 10 11 0 2 -4 4 -10 4 -5 0 -10
-5 -10 -11z"/>
<path d="M4383 3099 c9 -6 14 -15 11 -21 -4 -7 -2 -8 5 -4 14 9 -3 36 -23 36
-6 0 -3 -5 7 -11z"/>
<path d="M4323 3083 c-10 -3 -10 -7 0 -17 9 -11 14 -10 25 1 7 7 19 10 25 6 7
-3 9 -2 4 2 -9 11 -37 15 -54 8z"/>
<path d="M4390 3040 c0 -5 5 -10 11 -10 5 0 7 5 4 10 -3 6 -8 10 -11 10 -2 0
-4 -4 -4 -10z"/>
<path d="M4370 3020 c8 -5 20 -10 25 -10 6 0 3 5 -5 10 -8 5 -19 10 -25 10 -5
0 -3 -5 5 -10z"/>
<path d="M4476 2947 c3 -10 9 -15 12 -12 3 3 0 11 -7 18 -10 9 -11 8 -5 -6z"/>
<path d="M4450 2940 c0 -5 5 -10 11 -10 5 0 7 5 4 10 -3 6 -8 10 -11 10 -2 0
-4 -4 -4 -10z"/>
<path d="M4430 2900 c-9 -16 -8 -22 5 -26 14 -6 14 -8 0 -24 -13 -15 -14 -20
-3 -26 7 -4 10 -4 6 1 -4 4 -1 14 7 22 11 11 12 19 5 34 -6 11 -8 24 -5 29 3
6 4 10 1 10 -3 0 -10 -9 -16 -20z"/>
<path d="M4495 2849 c-4 -6 -5 -12 -2 -15 2 -3 7 2 10 11 7 17 1 20 -8 4z"/>
<path d="M305 2820 c-3 -6 1 -7 9 -4 18 7 21 14 7 14 -6 0 -13 -4 -16 -10z"/>
<path d="M289 2783 c-13 -16 -12 -17 4 -4 9 7 17 15 17 17 0 8 -8 3 -21 -13z"/>
<path d="M4476 2782 c-3 -5 1 -9 9 -9 8 0 12 4 9 9 -3 4 -7 8 -9 8 -2 0 -6 -4
-9 -8z"/>
<path d="M4452 2744 c-7 -8 -19 -11 -25 -7 -9 5 -8 2 0 -9 7 -8 9 -19 5 -23
-4 -5 -1 -5 6 -1 9 5 12 3 10 -6 -2 -7 7 -26 20 -42 12 -16 22 -24 22 -18 0 6
-4 13 -10 17 -5 3 -8 11 -6 18 1 7 1 9 -1 4 -8 -12 -22 3 -17 17 3 8 0 17 -6
21 -8 5 -5 11 7 20 10 7 16 16 13 18 -3 3 -11 -1 -18 -9z"/>
<path d="M4493 2699 c-2 -23 3 -25 10 -4 4 8 3 16 -1 19 -4 3 -9 -4 -9 -15z"/>
<path d="M4509 2628 c-8 -7 -12 -12 -10 -10 2 1 12 -5 22 -14 11 -10 19 -12
24 -4 4 6 1 9 -7 8 -7 -2 -12 5 -12 15 2 20 2 20 -17 5z"/>
<path d="M256 2517 c3 -10 9 -15 12 -12 3 3 0 11 -7 18 -10 9 -11 8 -5 -6z"/>
<path d="M4505 2510 c-4 -6 -11 -7 -17 -4 -7 4 -8 2 -4 -4 4 -7 1 -12 -6 -12
-7 -1 -2 -7 11 -14 14 -8 19 -16 13 -20 -6 -3 -12 0 -15 6 -2 7 -8 9 -13 5
-10 -9 16 -28 28 -20 5 2 15 0 23 -7 9 -8 15 -8 20 0 4 6 1 9 -7 8 -7 -2 -13
6 -13 17 0 14 -6 19 -20 17 -16 -3 -17 -2 -6 12 11 13 17 14 30 4 14 -12 14
-11 2 5 -16 20 -18 20 -26 7z"/>
<path d="M4550 2500 c0 -5 5 -10 11 -10 5 0 7 5 4 10 -3 6 -8 10 -11 10 -2 0
-4 -4 -4 -10z"/>
<path d="M230 2485 c0 -7 30 -13 34 -7 3 4 -4 9 -15 9 -10 1 -19 0 -19 -2z"/>
<path d="M260 2460 c-9 -6 -10 -10 -3 -10 6 0 15 5 18 10 8 12 4 12 -15 0z"/>
<path d="M4460 2421 c-7 -14 -7 -22 0 -26 6 -4 8 -10 5 -15 -3 -5 -1 -12 5
-15 8 -5 8 -11 0 -20 -7 -9 -6 -16 3 -24 11 -8 16 -5 26 15 6 14 8 23 4 21 -5
-3 -13 1 -20 8 -10 11 -10 15 0 18 9 4 9 6 -1 6 -7 1 -11 5 -7 11 3 5 13 6 22
3 12 -5 12 -2 -3 15 -22 27 -21 26 -34 3z m11 -14 c-10 -9 -11 -8 -5 6 3 10 9
15 12 12 3 -3 0 -11 -7 -18z m19 -67 c0 -5 -5 -10 -11 -10 -5 0 -7 5 -4 10 3
6 8 10 11 10 2 0 4 -4 4 -10z"/>
<path d="M4516 2395 c-11 -8 -18 -16 -15 -18 2 -1 11 -8 21 -15 12 -10 18 -10
24 -1 4 7 3 9 -4 5 -16 -10 -25 13 -12 29 16 19 11 19 -14 0z"/>
<path d="M4530 2260 c0 -5 5 -10 11 -10 5 0 7 5 4 10 -3 6 -8 10 -11 10 -2 0
-4 -4 -4 -10z"/>
<path d="M186 2198 c3 -5 10 -6 15 -3 13 9 11 12 -6 12 -8 0 -12 -4 -9 -9z"/>
<path d="M261 2173 c7 -12 15 -20 18 -17 3 2 -3 12 -13 22 -17 16 -18 16 -5
-5z"/>
<path d="M234 2142 c4 -3 14 -7 22 -8 9 -1 13 0 10 4 -4 3 -14 7 -22 8 -9 1
-13 0 -10 -4z"/>
<path d="M4555 2069 c-4 -6 -5 -12 -2 -15 2 -3 7 2 10 11 7 17 1 20 -8 4z"/>
<path d="M4516 1993 c-4 -5 -12 -9 -17 -9 -5 -1 -13 -2 -19 -3 -5 0 -10 -6
-10 -12 0 -8 4 -9 13 0 8 6 16 9 19 6 3 -3 11 1 18 10 13 15 10 21 -4 8z"/>
<path d="M4453 1947 c0 -20 20 -28 38 -15 12 8 12 9 -1 5 -8 -2 -20 3 -26 11
-9 13 -11 13 -11 -1z"/>
<path d="M4491 1911 c-8 -5 -20 -7 -28 -4 -21 8 -15 -5 8 -18 17 -9 20 -8 14
2 -6 8 -4 11 7 7 9 -4 15 0 15 8 0 8 -1 14 -1 14 -1 0 -7 -4 -15 -9z"/>
<path d="M4467 1869 c7 -7 15 -10 18 -7 3 3 -2 9 -12 12 -14 6 -15 5 -6 -5z"/>
<path d="M4444 1849 c-4 -7 -3 -9 4 -5 5 3 12 0 15 -6 4 -10 7 -10 16 -1 6 7
8 11 5 8 -4 -3 -13 0 -20 6 -8 7 -14 6 -20 -2z"/>
<path d="M4507 1839 c7 -7 15 -10 18 -7 3 3 -2 9 -12 12 -14 6 -15 5 -6 -5z"/>
<path d="M274 1820 c0 -13 4 -16 10 -10 7 7 7 13 0 20 -6 6 -10 3 -10 -10z"/>
<path d="M4442 1825 c4 -4 -3 -16 -15 -26 -12 -10 -18 -18 -13 -19 4 0 1 -11
-8 -25 -12 -18 -13 -25 -4 -25 9 0 8 -3 -2 -11 -12 -8 -10 -9 9 -4 18 6 22 4
15 -6 -7 -12 -5 -12 9 -1 9 8 19 23 23 35 6 20 7 20 20 2 8 -10 14 -14 14 -8
0 6 -7 16 -15 23 -12 10 -17 8 -26 -13 -11 -24 -39 -28 -39 -5 0 5 3 7 8 5 4
-2 18 8 31 21 14 16 17 23 8 19 -9 -3 -19 -2 -22 2 -6 11 23 23 36 15 5 -3 9
-3 9 0 0 3 -10 11 -22 17 -13 6 -20 8 -16 4z m-7 -44 c3 -5 2 -12 -3 -15 -5
-3 -9 1 -9 9 0 17 3 19 12 6z"/>
<path d="M306 1805 c-11 -8 -16 -15 -10 -15 5 0 18 7 28 15 11 8 16 15 10 15
-5 0 -18 -7 -28 -15z"/>
<path d="M318 1753 c7 -3 16 -2 19 1 4 3 -2 6 -13 5 -11 0 -14 -3 -6 -6z"/>
<path d="M293 1705 c0 -8 4 -12 9 -9 5 3 6 10 3 15 -9 13 -12 11 -12 -6z"/>
<path d="M320 1705 c0 -2 6 -8 13 -14 10 -8 14 -7 14 2 0 8 -6 14 -14 14 -7 0
-13 -1 -13 -2z"/>
<path d="M4414 1678 c-3 -5 -3 -12 0 -15 3 -4 6 -2 6 4 0 6 12 9 26 7 14 -1
23 0 20 4 -10 9 -46 10 -52 0z"/>
<path d="M4370 1619 c0 -5 -6 -7 -12 -3 -7 4 -4 -3 7 -15 19 -22 19 -23 0 -37
-15 -11 -16 -14 -3 -14 22 0 31 29 16 48 -11 13 -10 15 4 9 12 -4 15 -2 11 9
-6 16 -23 19 -23 3z"/>
<path d="M4380 1540 c-8 -5 -10 -10 -5 -10 6 0 17 5 25 10 8 5 11 10 5 10 -5
0 -17 -5 -25 -10z"/>
<path d="M4386 1503 c-6 -14 -5 -15 5 -6 7 7 10 15 7 18 -3 3 -9 -2 -12 -12z"/>
<path d="M388 1477 c7 -8 8 -18 4 -23 -4 -5 -3 -6 2 -2 5 4 16 2 24 -5 13 -11
14 -9 1 10 -7 13 -20 25 -28 28 -11 4 -11 2 -3 -8z"/>
<path d="M435 1479 c-4 -6 -5 -12 -2 -15 2 -3 7 2 10 11 7 17 1 20 -8 4z"/>
<path d="M438 1439 c-10 -16 -14 -27 -9 -24 5 3 12 -1 15 -7 4 -9 5 -8 5 2 -2
30 1 41 11 35 6 -3 7 1 4 9 -8 20 -6 21 -26 -15z"/>
<path d="M4295 1460 c-6 -10 1 -14 19 -11 4 1 14 -4 22 -10 18 -14 19 -2 1 14
-17 16 -35 19 -42 7z"/>
<path d="M4300 1410 c5 -9 17 -23 27 -31 16 -12 16 -11 -1 9 -11 12 -16 25
-12 29 4 4 12 1 17 -7 9 -13 10 -13 6 0 -2 8 -13 16 -25 16 -17 1 -19 -2 -12
-16z"/>
<path d="M4284 1344 c-18 -14 -18 -15 4 -4 12 6 22 13 22 15 0 8 -5 6 -26 -11z"/>
<path d="M4255 1279 c-4 -6 -5 -12 -2 -15 2 -3 7 2 10 11 7 17 1 20 -8 4z"/>
<path d="M4265 1220 c-3 -6 1 -7 9 -4 18 7 21 14 7 14 -6 0 -13 -4 -16 -10z"/>
<path d="M4236 1202 c-3 -5 1 -9 9 -9 8 0 12 4 9 9 -3 4 -7 8 -9 8 -2 0 -6 -4
-9 -8z"/>
<path d="M555 1160 c3 -5 8 -10 11 -10 2 0 4 5 4 10 0 6 -5 10 -11 10 -5 0 -7
-4 -4 -10z"/>
<path d="M619 1154 c-10 -13 -10 -17 1 -24 9 -5 20 -4 27 2 10 8 12 7 7 -6 -3
-9 -2 -16 4 -16 15 0 21 -37 8 -51 -7 -9 -5 -9 7 1 11 8 15 20 11 29 -5 14
-11 35 -13 51 -1 3 -10 11 -20 17 -16 10 -22 9 -32 -3z m25 -15 c-3 -5 -10 -7
-15 -3 -5 3 -7 10 -3 15 3 5 10 7 15 3 5 -3 7 -10 3 -15z"/>
<path d="M4186 1144 c-5 -14 -4 -15 9 -4 17 14 19 20 6 20 -5 0 -12 -7 -15
-16z"/>
<path d="M636 1091 c-3 -5 1 -11 9 -14 9 -4 12 -1 8 9 -6 16 -10 17 -17 5z"/>
<path d="M4110 1050 c0 -5 5 -10 11 -10 5 0 7 5 4 10 -3 6 -8 10 -11 10 -2 0
-4 -4 -4 -10z"/>
<path d="M670 956 c0 -2 8 -10 18 -17 15 -13 16 -12 3 4 -13 16 -21 21 -21 13z"/>
<path d="M4033 938 c1 -7 -4 -12 -11 -10 -8 1 -11 -2 -7 -8 5 -8 11 -7 21 1
16 13 18 29 4 29 -5 0 -9 -6 -7 -12z"/>
<path d="M710 926 c0 -2 7 -7 16 -10 8 -3 12 -2 9 4 -6 10 -25 14 -25 6z"/>
<path d="M3958 901 c-4 -12 -11 -20 -17 -17 -6 4 -8 -5 -7 -21 3 -26 36 -48
36 -24 0 6 -7 7 -17 4 -9 -4 -14 -2 -11 3 3 5 8 17 12 28 5 16 9 16 23 5 12
-10 14 -10 9 -1 -4 7 -1 12 8 12 9 0 16 5 16 10 0 7 -6 7 -19 0 -16 -8 -20 -6
-23 8 -3 13 -5 12 -10 -7z"/>
<path d="M784 899 c-5 -9 -4 -10 14 -13 18 -3 61 -44 54 -52 -4 -5 1 -2 10 5
19 14 17 16 33 -35 3 -8 10 -12 17 -8 7 5 9 1 6 -13 -3 -12 0 -20 7 -20 9 0
11 7 5 21 -4 12 -8 24 -9 28 -5 23 -14 37 -21 33 -5 -3 -11 -1 -15 5 -4 6 -10
8 -15 5 -4 -3 -19 4 -31 15 -13 11 -19 19 -12 20 6 0 15 -4 18 -10 3 -5 13
-10 21 -10 8 0 12 5 9 10 -4 6 -10 8 -15 5 -5 -3 -12 0 -17 7 -9 15 -51 20
-59 7z m131 -78 c3 -5 1 -12 -5 -16 -5 -3 -10 1 -10 9 0 18 6 21 15 7z"/>
<path d="M736 882 c-3 -4 4 -9 15 -9 23 -2 25 3 4 10 -8 4 -16 3 -19 -1z"/>
<path d="M4016 873 c-6 -14 -5 -15 5 -6 7 7 10 15 7 18 -3 3 -9 -2 -12 -12z"/>
<path d="M791 867 c2 -1 13 -9 24 -17 19 -14 19 -14 6 3 -7 9 -18 17 -24 17
-6 0 -8 -1 -6 -3z"/>
<path d="M3833 839 c-30 -19 -37 -30 -34 -51 0 -4 -11 -16 -26 -27 -14 -12
-20 -21 -12 -21 11 0 11 -2 -1 -10 -8 -5 -11 -10 -6 -10 5 0 1 -9 -9 -20 -10
-11 -21 -18 -25 -15 -4 2 -20 -9 -35 -25 -15 -16 -32 -27 -36 -24 -5 3 -6 -1
-3 -9 7 -19 -26 -31 -40 -16 -8 9 -7 10 4 4 12 -7 13 -5 2 6 -10 11 -16 9 -35
-12 -25 -28 -32 -49 -17 -49 5 0 10 8 10 17 0 15 2 14 15 -3 10 -13 13 -14 10
-3 -7 18 22 22 43 6 6 -5 13 -6 13 -1 1 5 2 14 4 19 1 6 3 16 3 23 1 7 6 10
12 7 5 -3 21 6 35 22 13 15 25 23 25 17 0 -6 -7 -17 -15 -24 -8 -7 -15 -17
-15 -23 0 -5 8 0 19 11 10 12 22 18 26 14 4 -4 2 4 -5 17 -11 21 -10 23 3 18
12 -4 14 -2 10 10 -5 12 -3 14 7 8 8 -5 11 -4 7 2 -8 13 22 55 34 48 9 -6 11
0 12 46 1 29 23 33 64 11 19 -10 20 -9 16 8 -3 11 -10 20 -15 20 -5 0 -6 -5
-2 -12 4 -6 3 -8 -4 -4 -6 3 -9 15 -7 26 5 24 7 24 -32 -1z m-24 -72 c-2 -1
-13 -9 -24 -17 -19 -14 -19 -14 -6 3 7 9 18 17 24 17 6 0 8 -1 6 -3z m-89 -90
c0 -2 -12 -14 -27 -28 l-28 -24 24 28 c23 25 31 32 31 24z"/>
<path d="M3993 845 c0 -8 4 -12 9 -9 5 3 6 10 3 15 -9 13 -12 11 -12 -6z"/>
<path d="M799 813 c-13 -16 -12 -17 4 -4 9 7 17 15 17 17 0 8 -8 3 -21 -13z"/>
<path d="M835 800 c3 -5 8 -10 11 -10 2 0 4 5 4 10 0 6 -5 10 -11 10 -5 0 -7
-4 -4 -10z"/>
<path d="M3835 787 c0 -12 -2 -30 -7 -39 -6 -13 -5 -16 7 -12 8 3 13 10 10 14
-6 10 20 32 28 23 4 -3 7 -4 7 -1 0 3 -11 13 -24 21 -22 15 -23 14 -21 -6z"/>
<path d="M873 787 c0 -8 6 -14 14 -14 9 0 10 4 2 14 -6 7 -12 13 -14 13 -1 0
-2 -6 -2 -13z"/>
<path d="M3936 787 c3 -10 9 -15 12 -12 3 3 0 11 -7 18 -10 9 -11 8 -5 -6z"/>
<path d="M930 741 c0 -6 4 -13 10 -16 6 -3 7 1 4 9 -7 18 -14 21 -14 7z"/>
<path d="M3785 719 c-4 -6 -4 -13 -1 -16 3 -4 6 -1 6 6 0 7 5 9 10 6 6 -3 10
-1 10 4 0 14 -17 14 -25 0z"/>
<path d="M935 680 c-3 -5 -1 -10 4 -10 6 0 11 5 11 10 0 6 -2 10 -4 10 -3 0
-8 -4 -11 -10z"/>
<path d="M3773 675 c-3 -9 -3 -18 -1 -21 3 -3 8 4 11 16 6 23 -1 27 -10 5z"/>
<path d="M1025 661 c-6 -11 9 -23 19 -14 9 9 7 23 -3 23 -6 0 -12 -4 -16 -9z"/>
<path d="M3796 658 c3 -5 10 -6 15 -3 13 9 11 12 -6 12 -8 0 -12 -4 -9 -9z"/>
<path d="M995 651 c-3 -5 -2 -12 3 -15 5 -3 9 1 9 9 0 17 -3 19 -12 6z"/>
<path d="M1050 626 c0 -8 4 -17 9 -20 5 -4 7 3 4 14 -6 23 -13 26 -13 6z"/>
<path d="M1140 615 c-12 -15 -4 -20 22 -16 4 0 7 -9 5 -20 -3 -28 30 -34 43
-8 10 17 6 23 -12 20 -4 0 -10 9 -13 20 -7 20 -7 20 -22 2 -13 -16 -14 -17 -9
0 7 21 2 22 -14 2z m64 -40 c-5 -12 -34 -17 -34 -5 0 11 9 17 24 17 8 0 12 -6
10 -12z"/>
<path d="M3736 613 c-6 -14 -5 -15 5 -6 7 7 10 15 7 18 -3 3 -9 -2 -12 -12z"/>
<path d="M3670 599 c0 -5 5 -7 10 -4 6 3 10 8 10 11 0 2 -4 4 -10 4 -5 0 -10
-5 -10 -11z"/>
<path d="M3689 583 c-13 -16 -12 -17 4 -4 16 13 21 21 13 21 -2 0 -10 -8 -17
-17z"/>
<path d="M3467 553 c-14 -13 14 -33 33 -23 9 5 20 7 22 4 3 -3 8 2 12 11 4 13
2 14 -14 5 -12 -7 -21 -7 -25 0 -7 12 -19 13 -28 3z"/>
<path d="M3606 538 c3 -5 10 -6 15 -3 13 9 11 12 -6 12 -8 0 -12 -4 -9 -9z"/>
<path d="M3540 525 c0 -7 30 -13 34 -7 3 4 -4 9 -15 9 -10 1 -19 0 -19 -2z"/>
<path d="M3497 513 c-10 -10 -8 -23 4 -23 5 0 8 4 4 9 -3 5 3 12 12 14 14 4
15 5 2 6 -9 0 -19 -2 -22 -6z"/>
<path d="M1265 489 c-4 -6 -5 -12 -2 -15 2 -3 7 2 10 11 7 17 1 20 -8 4z"/>
<path d="M1385 471 c-3 -6 -14 -8 -24 -6 -10 2 -24 -1 -32 -6 -11 -8 -10 -9 5
-7 13 2 25 -6 34 -22 12 -23 13 -23 9 -3 -3 13 2 28 10 35 14 11 15 10 9 -8
-5 -16 -2 -23 13 -27 29 -7 46 17 24 34 -9 8 -14 9 -10 3 4 -7 1 -14 -7 -17
-10 -4 -12 0 -9 14 5 19 -11 27 -22 10z"/>
<path d="M1273 426 c0 -15 22 -15 34 0 4 5 4 6 -1 2 -5 -4 -14 -3 -21 2 -8 7
-12 5 -12 -4z"/>
<path d="M1339 433 c0 -5 -2 -16 -4 -26 -2 -11 -1 -16 3 -13 8 8 14 46 7 46
-3 0 -5 -3 -6 -7z"/>
<path d="M3236 422 c-8 -13 18 -34 29 -24 5 4 5 -2 2 -13 -6 -17 -4 -17 13 4
20 23 19 41 -2 41 -5 0 -7 -8 -4 -17 6 -15 5 -15 -13 1 -10 10 -22 13 -25 8z"/>
<path d="M3300 391 c0 -6 4 -13 10 -16 6 -3 7 1 4 9 -7 18 -14 21 -14 7z"/>
<path d="M3395 391 c-3 -5 -2 -12 3 -15 5 -3 9 1 9 9 0 17 -3 19 -12 6z"/>
<path d="M3337 375 c-4 -8 -1 -17 6 -21 7 -4 9 -4 5 1 -4 4 -3 14 3 22 7 8 8
13 1 13 -5 0 -12 -7 -15 -15z"/>
<path d="M1546 365 c4 -8 11 -15 16 -15 6 0 5 6 -2 15 -7 8 -14 15 -16 15 -2
0 -1 -7 2 -15z"/>
<path d="M3275 360 c-3 -5 -1 -10 4 -10 6 0 11 5 11 10 0 6 -2 10 -4 10 -3 0
-8 -4 -11 -10z"/>
<path d="M1520 340 c-12 -7 -10 -9 7 -7 12 0 19 5 17 9 -6 10 -6 10 -24 -2z"/>
<path d="M1574 339 c-4 -7 -3 -9 4 -5 5 3 13 0 15 -6 4 -9 6 -10 6 -1 1 17
-16 25 -25 12z"/>
<path d="M1632 320 c3 -8 1 -24 -4 -35 -8 -18 -8 -19 5 -3 8 10 18 14 23 10 4
-4 2 2 -6 13 -21 30 -23 31 -18 15z"/>
<path d="M1836 321 c-3 -5 1 -11 9 -14 9 -4 12 -1 8 9 -6 16 -10 17 -17 5z"/>
<path d="M1550 317 c0 -2 6 -10 14 -16 11 -9 16 -9 22 1 4 7 4 10 -1 6 -4 -4
-14 -3 -22 3 -7 6 -13 9 -13 6z"/>
<path d="M3099 288 c-5 -16 -4 -50 1 -53 4 -3 7 6 6 18 -1 12 3 25 9 29 6 5 6
8 -2 8 -7 0 -13 -1 -14 -2z"/>
<path d="M1735 260 c3 -5 8 -10 11 -10 2 0 4 5 4 10 0 6 -5 10 -11 10 -5 0 -7
-4 -4 -10z"/>
<path d="M1770 259 c0 -5 5 -7 10 -4 6 3 10 8 10 11 0 2 -4 4 -10 4 -5 0 -10
-5 -10 -11z"/>
<path d="M2140 255 c-7 -9 -15 -13 -18 -10 -3 2 -11 -7 -19 -22 -7 -14 -11
-28 -9 -30 2 -3 10 5 16 17 9 16 15 19 23 11 16 -16 28 -13 25 7 -2 12 3 16
16 14 17 -3 18 -2 7 12 -17 20 -25 20 -41 1z m11 -8 c-6 -8 -7 -18 -3 -22 4
-5 1 -5 -6 -1 -10 6 -10 11 -1 22 6 8 14 14 16 14 3 0 0 -6 -6 -13z"/>
<path d="M1695 240 c3 -5 8 -10 11 -10 2 0 4 5 4 10 0 6 -5 10 -11 10 -5 0 -7
-4 -4 -10z"/>
<path d="M2026 242 c-3 -5 1 -9 9 -9 8 0 12 4 9 9 -3 4 -7 8 -9 8 -2 0 -6 -4
-9 -8z"/>
<path d="M2880 246 c0 -2 7 -7 16 -10 8 -3 12 -2 9 4 -6 10 -25 14 -25 6z"/>
<path d="M3000 240 c-9 -6 -10 -10 -3 -10 6 0 15 5 18 10 8 12 4 12 -15 0z"/>
<path d="M1897 227 c-3 -8 1 -14 8 -14 7 0 11 6 8 14 -6 16 -10 16 -16 0z"/>
<path d="M2875 221 c-3 -5 -2 -12 3 -15 5 -3 9 1 9 9 0 17 -3 19 -12 6z"/>
<path d="M3055 221 c-3 -5 -2 -12 3 -15 5 -3 9 1 9 9 0 17 -3 19 -12 6z"/>
<path d="M2203 179 c9 -6 14 -15 11 -21 -4 -7 -2 -8 4 -4 16 9 3 36 -17 36
-14 -1 -14 -2 2 -11z"/>
<path d="M2769 177 c6 -8 7 -18 3 -22 -4 -5 -1 -5 6 -1 10 6 10 11 1 22 -6 8
-14 14 -16 14 -3 0 0 -6 6 -13z"/>
<path d="M2595 160 c3 -5 8 -10 11 -10 2 0 4 5 4 10 0 6 -5 10 -11 10 -5 0 -7
-4 -4 -10z"/>
<path d="M2639 168 c-5 -18 -6 -38 -1 -34 7 8 12 36 6 36 -2 0 -4 -1 -5 -2z"/>
<path d="M2735 160 c3 -5 8 -10 11 -10 2 0 4 5 4 10 0 6 -5 10 -11 10 -5 0 -7
-4 -4 -10z"/>
<path d="M2434 140 c0 -13 4 -16 10 -10 7 7 7 13 0 20 -6 6 -10 3 -10 -10z"/>
</g>
</svg>
